<svg width="56" height="48" viewBox="0 0 56 48" fill="none" xmlns="http://www.w3.org/2000/svg">
<rect width="56" height="48" rx="8" fill="#F0F0FF"/>
<path d="M41 15V33C41 33.5304 40.7893 34.0391 40.4142 34.4142C40.0391 34.7893 39.5304 35 39 35H17C16.4696 35 15.9609 34.7893 15.5858 34.4142C15.2107 34.0391 15 33.5304 15 33V15C15 14.4696 15.2107 13.9609 15.5858 13.5858C15.9609 13.2107 16.4696 13 17 13H39C39.5304 13 40.0391 13.2107 40.4142 13.5858C40.7893 13.9609 41 14.4696 41 15ZM39 33V15H17V33H39ZM28.9675 28.75C29.0338 29.0069 28.9953 29.2797 28.8605 29.5082C28.7257 29.7368 28.5057 29.9024 28.2488 29.9688C27.9918 30.0351 27.7191 29.9966 27.4905 29.8618C27.262 29.727 27.0963 29.5069 27.03 29.25C26.7013 27.9675 25.3975 27 23.9987 27C22.6 27 21.2975 27.9675 20.9675 29.25C20.9012 29.5069 20.7355 29.727 20.507 29.8618C20.2784 29.9966 20.0057 30.0351 19.7488 29.9688C19.4918 29.9024 19.2718 29.7368 19.137 29.5082C19.0022 29.2797 18.9637 29.0069 19.03 28.75C19.3545 27.5422 20.1216 26.5007 21.1788 25.8325C20.617 25.274 20.2336 24.5614 20.0774 23.7848C19.9211 23.0082 19.9989 22.2027 20.301 21.4704C20.603 20.7381 21.1157 20.112 21.774 19.6714C22.4323 19.2309 23.2066 18.9957 23.9987 18.9957C24.7909 18.9957 25.5652 19.2309 26.2235 19.6714C26.8818 20.112 27.3945 20.7381 27.6965 21.4704C27.9986 22.2027 28.0764 23.0082 27.9201 23.7848C27.7639 24.5614 27.3805 25.274 26.8188 25.8325C27.8771 26.4997 28.6448 27.5416 28.9688 28.75H28.9675ZM24 25C24.3956 25 24.7822 24.8827 25.1111 24.6629C25.44 24.4432 25.6964 24.1308 25.8478 23.7654C25.9991 23.3999 26.0387 22.9978 25.9616 22.6098C25.8844 22.2219 25.6939 21.8655 25.4142 21.5858C25.1345 21.3061 24.7781 21.1156 24.3902 21.0384C24.0022 20.9613 23.6001 21.0009 23.2346 21.1522C22.8692 21.3036 22.5568 21.56 22.3371 21.8889C22.1173 22.2178 22 22.6044 22 23C22 23.5304 22.2107 24.0391 22.5858 24.4142C22.9609 24.7893 23.4696 25 24 25Z" fill="#6563D4"/>
<path fill-rule="evenodd" clip-rule="evenodd" d="M36.4172 21.8C36.3156 21.8 36.2148 21.8191 36.1205 21.8563C36.0261 21.8935 35.9398 21.9483 35.8666 22.018L32.3342 25.382L31.135 24.2399C30.9874 24.0993 30.7891 24.0219 30.5844 24.0219C30.3796 24.0219 30.1814 24.0993 30.0338 24.2399C29.8858 24.3808 29.8008 24.574 29.8008 24.7777C29.8008 24.9814 29.8858 25.1747 30.0338 25.3156L31.7836 26.982C31.8568 27.0517 31.9431 27.1065 32.0374 27.1437C32.1318 27.181 32.2326 27.2 32.3342 27.2C32.4358 27.2 32.5367 27.181 32.631 27.1437C32.7254 27.1065 32.8118 27.0516 32.8849 26.9819L36.9678 23.0937C37.041 23.024 37.0996 22.9407 37.1398 22.8483C37.18 22.7559 37.2008 22.6565 37.2008 22.5558C37.2008 22.4552 37.18 22.3558 37.1398 22.2634C37.0996 22.171 37.041 22.0877 36.9678 22.018C36.8946 21.9483 36.8083 21.8935 36.7139 21.8563C36.6196 21.8191 36.5188 21.8 36.4172 21.8Z" fill="#6563D4"/>
</svg>
