<svg width="56" height="48" viewBox="0 0 56 48" fill="none" xmlns="http://www.w3.org/2000/svg">
<rect width="56" height="48" rx="8" fill="#F0F0FF"/>
<path d="M37 22C37 22.2652 36.8946 22.5196 36.7071 22.7071C36.5196 22.8946 36.2652 23 36 23H31C30.7348 23 30.4804 22.8946 30.2929 22.7071C30.1054 22.5196 30 22.2652 30 22C30 21.7348 30.1054 21.4804 30.2929 21.2929C30.4804 21.1054 30.7348 21 31 21H36C36.2652 21 36.5196 21.1054 36.7071 21.2929C36.8946 21.4804 37 21.7348 37 22ZM36 25H31C30.7348 25 30.4804 25.1054 30.2929 25.2929C30.1054 25.4804 30 25.7348 30 26C30 26.2652 30.1054 26.5196 30.2929 26.7071C30.4804 26.8946 30.7348 27 31 27H36C36.2652 27 36.5196 26.8946 36.7071 26.7071C36.8946 26.5196 37 26.2652 37 26C37 25.7348 36.8946 25.4804 36.7071 25.2929C36.5196 25.1054 36.2652 25 36 25ZM41 15V33C41 33.5304 40.7893 34.0391 40.4142 34.4142C40.0391 34.7893 39.5304 35 39 35H17C16.4696 35 15.9609 34.7893 15.5858 34.4142C15.2107 34.0391 15 33.5304 15 33V15C15 14.4696 15.2107 13.9609 15.5858 13.5858C15.9609 13.2107 16.4696 13 17 13H39C39.5304 13 40.0391 13.2107 40.4142 13.5858C40.7893 13.9609 41 14.4696 41 15ZM39 33V15H17V33H39ZM28.9675 28.75C29.0338 29.0069 28.9953 29.2797 28.8605 29.5082C28.7257 29.7368 28.5057 29.9024 28.2488 29.9688C27.9918 30.0351 27.7191 29.9966 27.4905 29.8618C27.262 29.727 27.0963 29.5069 27.03 29.25C26.7013 27.9675 25.3975 27 23.9987 27C22.6 27 21.2975 27.9675 20.9675 29.25C20.9012 29.5069 20.7355 29.727 20.507 29.8618C20.2784 29.9966 20.0057 30.0351 19.7488 29.9688C19.4918 29.9024 19.2718 29.7368 19.137 29.5082C19.0022 29.2797 18.9637 29.0069 19.03 28.75C19.3545 27.5422 20.1216 26.5007 21.1788 25.8325C20.617 25.274 20.2336 24.5614 20.0774 23.7848C19.9211 23.0082 19.9989 22.2027 20.301 21.4704C20.603 20.7381 21.1157 20.112 21.774 19.6714C22.4323 19.2309 23.2066 18.9957 23.9987 18.9957C24.7909 18.9957 25.5652 19.2309 26.2235 19.6714C26.8818 20.112 27.3945 20.7381 27.6965 21.4704C27.9986 22.2027 28.0764 23.0082 27.9201 23.7848C27.7639 24.5614 27.3805 25.274 26.8188 25.8325C27.8771 26.4997 28.6448 27.5416 28.9688 28.75H28.9675ZM24 25C24.3956 25 24.7822 24.8827 25.1111 24.6629C25.44 24.4432 25.6964 24.1308 25.8478 23.7654C25.9991 23.3999 26.0387 22.9978 25.9616 22.6098C25.8844 22.2219 25.6939 21.8655 25.4142 21.5858C25.1345 21.3061 24.7781 21.1156 24.3902 21.0384C24.0022 20.9613 23.6001 21.0009 23.2346 21.1522C22.8692 21.3036 22.5568 21.56 22.3371 21.8889C22.1173 22.2178 22 22.6044 22 23C22 23.5304 22.2107 24.0391 22.5858 24.4142C22.9609 24.7893 23.4696 25 24 25Z" fill="#6563D4"/>
<path d="M48 13.0769V9.84615C48 9.35652 47.8055 8.88695 47.4593 8.54073C47.1131 8.1945 46.6435 8 46.1538 8H42.9231C42.6783 8 42.4435 8.09725 42.2704 8.27036C42.0973 8.44347 42 8.67826 42 8.92308C42 9.16789 42.0973 9.40268 42.2704 9.57579C42.4435 9.7489 42.6783 9.84615 42.9231 9.84615H46.1538V13.0769C46.1538 13.3217 46.2511 13.5565 46.4242 13.7296C46.5973 13.9027 46.8321 14 47.0769 14C47.3217 14 47.5565 13.9027 47.7296 13.7296C47.9027 13.5565 48 13.3217 48 13.0769Z" fill="#6563D4"/>
<path d="M8 13.0769V9.84615C8 9.35652 8.19451 8.88695 8.54073 8.54073C8.88695 8.1945 9.35652 8 9.84615 8H13.0769C13.3217 8 13.5565 8.09725 13.7296 8.27036C13.9027 8.44347 14 8.67826 14 8.92308C14 9.16789 13.9027 9.40268 13.7296 9.57579C13.5565 9.7489 13.3217 9.84615 13.0769 9.84615H9.84615V13.0769C9.84615 13.3217 9.7489 13.5565 9.57579 13.7296C9.40268 13.9027 9.16789 14 8.92308 14C8.67826 14 8.44347 13.9027 8.27036 13.7296C8.09725 13.5565 8 13.3217 8 13.0769Z" fill="#6563D4"/>
<path d="M46.4242 34.2704C46.5973 34.0973 46.8321 34 47.0769 34C47.3217 34 47.5565 34.0973 47.7296 34.2704C47.9027 34.4435 48 34.6783 48 34.9231V38.1538C48 38.6435 47.8055 39.1131 47.4593 39.4593C47.1131 39.8055 46.6435 40 46.1538 40H42.9231C42.6783 40 42.4435 39.9027 42.2704 39.7296C42.0973 39.5565 42 39.3217 42 39.0769C42 38.8321 42.0973 38.5973 42.2704 38.4242C42.4435 38.2511 42.6783 38.1538 42.9231 38.1538H46.1538V34.9231C46.1538 34.6783 46.2511 34.4435 46.4242 34.2704Z" fill="#6563D4"/>
<path d="M9.57579 34.2704C9.40268 34.0973 9.16789 34 8.92308 34C8.67826 34 8.44347 34.0973 8.27036 34.2704C8.09725 34.4435 8 34.6783 8 34.9231V38.1538C8 38.6435 8.19451 39.1131 8.54073 39.4593C8.88695 39.8055 9.35652 40 9.84615 40H13.0769C13.3217 40 13.5565 39.9027 13.7296 39.7296C13.9027 39.5565 14 39.3217 14 39.0769C14 38.8321 13.9027 38.5973 13.7296 38.4242C13.5565 38.2511 13.3217 38.1538 13.0769 38.1538H9.84615V34.9231C9.84615 34.6783 9.7489 34.4435 9.57579 34.2704Z" fill="#6563D4"/>
</svg>
