<svg width="120" height="120" viewBox="0 0 120 120" fill="none" xmlns="http://www.w3.org/2000/svg">
<rect width="120" height="120" rx="32" fill="#F0F0FF"/>
<path d="M60 34C54.8577 34 49.8309 35.5249 45.5552 38.3818C41.2795 41.2387 37.947 45.2994 35.9791 50.0502C34.0113 54.8011 33.4964 60.0288 34.4996 65.0723C35.5028 70.1159 37.9791 74.7486 41.6152 78.3848C45.2514 82.0209 49.8842 84.4972 54.9277 85.5004C59.9712 86.5036 65.1989 85.9887 69.9498 84.0209C74.7007 82.053 78.7613 78.7205 81.6182 74.4448C84.4751 70.1691 86 65.1423 86 60C85.9927 53.1066 83.2511 46.4976 78.3767 41.6233C73.5024 36.7489 66.8934 34.0073 60 34ZM60 82C55.6488 82 51.3953 80.7097 47.7775 78.2923C44.1596 75.8749 41.3398 72.439 39.6747 68.419C38.0095 64.3991 37.5739 59.9756 38.4227 55.708C39.2716 51.4404 41.3669 47.5204 44.4437 44.4437C47.5204 41.3669 51.4404 39.2716 55.708 38.4227C59.9756 37.5738 64.3991 38.0095 68.419 39.6747C72.439 41.3398 75.875 44.1596 78.2923 47.7775C80.7097 51.3953 82 55.6488 82 60C81.9934 65.8327 79.6734 71.4247 75.5491 75.549C71.4247 79.6734 65.8327 81.9934 60 82ZM58 62V48C58 47.4696 58.2107 46.9609 58.5858 46.5858C58.9609 46.2107 59.4696 46 60 46C60.5304 46 61.0392 46.2107 61.4142 46.5858C61.7893 46.9609 62 47.4696 62 48V62C62 62.5304 61.7893 63.0391 61.4142 63.4142C61.0392 63.7893 60.5304 64 60 64C59.4696 64 58.9609 63.7893 58.5858 63.4142C58.2107 63.0391 58 62.5304 58 62ZM63 71C63 71.5933 62.8241 72.1734 62.4944 72.6667C62.1648 73.1601 61.6962 73.5446 61.1481 73.7716C60.5999 73.9987 59.9967 74.0581 59.4147 73.9424C58.8328 73.8266 58.2982 73.5409 57.8787 73.1213C57.4591 72.7018 57.1734 72.1672 57.0577 71.5853C56.9419 71.0033 57.0013 70.4001 57.2284 69.852C57.4554 69.3038 57.84 68.8352 58.3333 68.5056C58.8266 68.1759 59.4067 68 60 68C60.7957 68 61.5587 68.3161 62.1213 68.8787C62.6839 69.4413 63 70.2043 63 71Z" fill="#6563D4"/>
</svg>
