<svg width="120" height="120" viewBox="0 0 120 120" fill="none" xmlns="http://www.w3.org/2000/svg">
<rect width="120" height="120" rx="32" fill="#F0F0FF"/>
<path d="M85.415 52.5842C85.6008 52.77 85.7482 52.9906 85.8488 53.2334C85.9493 53.4762 86.0011 53.7364 86.0011 53.9992C86.0011 54.2619 85.9493 54.5222 85.8488 54.765C85.7482 55.0077 85.6008 55.2283 85.415 55.4142C85.2291 55.6 85.0085 55.7474 84.7658 55.8479C84.523 55.9485 84.2628 56.0003 84 56.0003C83.7372 56.0003 83.477 55.9485 83.2342 55.8479C82.9914 55.7474 82.7708 55.6 82.585 55.4142L78 50.8267L73.415 55.4142C73.0397 55.7894 72.5307 56.0003 72 56.0003C71.4692 56.0003 70.9603 55.7894 70.585 55.4142C70.2097 55.0389 69.9989 54.5299 69.9989 53.9992C69.9989 53.4684 70.2097 52.9594 70.585 52.5842L75.1725 47.9992L70.585 43.4142C70.3991 43.2283 70.2518 43.0077 70.1512 42.765C70.0506 42.5222 69.9989 42.2619 69.9989 41.9992C69.9989 41.7364 70.0506 41.4762 70.1512 41.2334C70.2518 40.9906 70.3991 40.77 70.585 40.5842C70.9603 40.2089 71.4692 39.998 72 39.998C72.2628 39.998 72.523 40.0498 72.7658 40.1504C73.0085 40.2509 73.2291 40.3983 73.415 40.5842L78 45.1717L82.585 40.5842C82.7708 40.3983 82.9914 40.2509 83.2342 40.1504C83.477 40.0498 83.7372 39.998 84 39.998C84.2628 39.998 84.523 40.0498 84.7658 40.1504C85.0085 40.2509 85.2291 40.3983 85.415 40.5842C85.6008 40.77 85.7482 40.9906 85.8488 41.2334C85.9493 41.4762 86.0011 41.7364 86.0011 41.9992C86.0011 42.2619 85.9493 42.5222 85.8488 42.765C85.7482 43.0077 85.6008 43.2283 85.415 43.4142L80.8275 47.9992L85.415 52.5842ZM60 75.9992C59.4066 75.9992 58.8266 76.1751 58.3333 76.5048C57.8399 76.8344 57.4554 77.3029 57.2283 77.8511C57.0013 78.3993 56.9419 79.0025 57.0576 79.5844C57.1734 80.1664 57.4591 80.7009 57.8786 81.1205C58.2982 81.54 58.8328 81.8258 59.4147 81.9415C59.9966 82.0573 60.5998 81.9979 61.148 81.7708C61.6962 81.5437 62.1647 81.1592 62.4944 80.6659C62.824 80.1725 63 79.5925 63 78.9992C63 78.2035 62.6839 77.4404 62.1213 76.8778C61.5587 76.3152 60.7956 75.9992 60 75.9992ZM71.1775 67.6317C67.9288 65.2706 64.016 63.999 60 63.999C55.984 63.999 52.0711 65.2706 48.8225 67.6317C48.3935 67.944 48.1061 68.4139 48.0236 68.938C47.9411 69.4622 48.0702 69.9977 48.3825 70.4267C48.6948 70.8556 49.1647 71.143 49.6888 71.2255C50.213 71.308 50.7485 71.179 51.1775 70.8667C53.7413 69.0021 56.8299 67.9978 60 67.9978C63.1701 67.9978 66.2587 69.0021 68.8225 70.8667C69.0349 71.0213 69.2757 71.1326 69.5311 71.1941C69.7865 71.2557 70.0516 71.2664 70.3111 71.2255C70.5706 71.1847 70.8196 71.0931 71.0437 70.956C71.2679 70.8189 71.4628 70.6391 71.6175 70.4267C71.7721 70.2142 71.8834 69.9735 71.945 69.718C72.0065 69.4626 72.0172 69.1976 71.9763 68.938C71.9355 68.6785 71.8439 68.4295 71.7068 68.2054C71.5698 67.9812 71.3899 67.7863 71.1775 67.6317ZM63.8075 44.1817C64.0726 44.2145 64.3416 44.1938 64.5986 44.121C64.8556 44.0481 65.0954 43.9245 65.3038 43.7574C65.5123 43.5904 65.6851 43.3832 65.8122 43.1483C65.9393 42.9133 66.018 42.6553 66.0438 42.3894C66.0695 42.1235 66.0417 41.8551 65.962 41.6002C65.8823 41.3452 65.7523 41.1088 65.5798 40.9048C65.4072 40.7009 65.1955 40.5336 64.9573 40.4129C64.719 40.2921 64.459 40.2203 64.1925 40.2017C62.81 40.0667 61.3975 39.9992 60 39.9992C50.0573 40.0055 40.4228 43.4502 32.73 49.7492C32.5269 49.9159 32.3587 50.1211 32.2349 50.3529C32.1111 50.5847 32.0342 50.8386 32.0086 51.1001C31.9829 51.3616 32.009 51.6256 32.0854 51.877C32.1618 52.1284 32.2869 52.3624 32.4537 52.5654C32.6205 52.7685 32.8256 52.9367 33.0574 53.0605C33.2892 53.1842 33.5431 53.2611 33.8046 53.2868C34.3328 53.3386 34.8599 53.1785 35.27 52.8417C42.2457 47.1283 50.9831 44.0041 60 43.9992C61.27 43.9992 62.55 44.0617 63.8075 44.1817ZM63.7275 56.2492C64.2502 56.3158 64.7782 56.1734 65.1966 55.8529C65.6149 55.5325 65.8899 55.0598 65.9617 54.5377C66.0335 54.0156 65.8963 53.4863 65.58 53.0648C65.2637 52.6433 64.7938 52.3636 64.2725 52.2867C62.8566 52.0931 61.429 51.997 60 51.9992C53.0082 51.9717 46.2168 54.3329 40.75 58.6917C40.428 58.951 40.1943 59.3038 40.0811 59.7015C39.9679 60.0991 39.9807 60.5221 40.1177 60.9122C40.2548 61.3022 40.5094 61.6403 40.8464 61.8797C41.1835 62.1191 41.5865 62.2482 42 62.2492C42.4539 62.2523 42.8951 62.0997 43.25 61.8167C48.0083 58.0273 53.9172 55.975 60 55.9992C61.2467 55.9971 62.4922 56.0807 63.7275 56.2492Z" fill="#6563D4"/>
</svg>
