<svg width="129" height="129" viewBox="0 0 129 129" fill="none" xmlns="http://www.w3.org/2000/svg">
    <path d="M0.5 24.5C0.5 11.2452 11.2452 0.5 24.5 0.5H104.5C117.755 0.5 128.5 11.2452 128.5 24.5V104.5C128.5 117.755 117.755 128.5 104.5 128.5H24.5C11.2452 128.5 0.5 117.755 0.5 104.5V24.5Z" fill="#FFBB01" fill-opacity="0.165"/>
    <path d="M87 48.1375V37C87 35.6739 86.4732 34.4021 85.5355 33.4645C84.5979 32.5268 83.3261 32 82 32H47C45.6739 32 44.4021 32.5268 43.4645 33.4645C42.5268 34.4021 42 35.6739 42 37V48.25C42.0017 49.0259 42.1832 49.7909 42.5302 50.4849C42.8772 51.1789 43.3803 51.7831 44 52.25L60.3344 64.5L44 76.75C43.3803 77.2169 42.8772 77.8211 42.5302 78.5151C42.1832 79.2091 42.0017 79.9741 42 80.75V92C42 93.3261 42.5268 94.5979 43.4645 95.5355C44.4021 96.4732 45.6739 97 47 97H82C83.3261 97 84.5979 96.4732 85.5355 95.5355C86.4732 94.5979 87 93.3261 87 92V80.8625C86.998 80.09 86.8179 79.3284 86.4737 78.6369C86.1296 77.9453 85.6306 77.3424 85.0156 76.875L68.6469 64.5L85.0156 52.125C85.6312 51.6581 86.1305 51.0553 86.4747 50.3636C86.8189 49.6719 86.9987 48.9101 87 48.1375ZM80.1969 79.5H48.6656L64.5 67.625L80.1969 79.5ZM47 92V84.5H82V92H47ZM82 48.1375L64.5 61.375L47 48.25V37H82V48.1375Z" fill="#FFB224"/>
</svg>
