<svg width="120" height="120" viewBox="0 0 120 120" fill="none" xmlns="http://www.w3.org/2000/svg">
<rect width="120" height="120" rx="32" fill="#F0F0FF"/>
<path d="M86 82H80V38C80 36.9391 79.5786 35.9217 78.8284 35.1716C78.0783 34.4214 77.0609 34 76 34H44C42.9391 34 41.9217 34.4214 41.1716 35.1716C40.4214 35.9217 40 36.9391 40 38V82H34C33.4696 82 32.9609 82.2107 32.5858 82.5858C32.2107 82.9609 32 83.4696 32 84C32 84.5304 32.2107 85.0391 32.5858 85.4142C32.9609 85.7893 33.4696 86 34 86H86C86.5304 86 87.0391 85.7893 87.4142 85.4142C87.7893 85.0391 88 84.5304 88 84C88 83.4696 87.7893 82.9609 87.4142 82.5858C87.0391 82.2107 86.5304 82 86 82ZM76 38V82H72V38H76ZM44 38H68V82H44V38ZM64 61C64 61.5933 63.8241 62.1734 63.4944 62.6667C63.1648 63.1601 62.6962 63.5446 62.148 63.7716C61.5999 63.9987 60.9967 64.0581 60.4147 63.9424C59.8328 63.8266 59.2982 63.5409 58.8787 63.1213C58.4591 62.7018 58.1734 62.1672 58.0576 61.5853C57.9419 61.0033 58.0013 60.4001 58.2284 59.8519C58.4554 59.3038 58.8399 58.8352 59.3333 58.5056C59.8266 58.1759 60.4067 58 61 58C61.7956 58 62.5587 58.3161 63.1213 58.8787C63.6839 59.4413 64 60.2044 64 61Z" fill="#6563D4"/>
</svg>
