<svg width="120" height="120" viewBox="0 0 120 120" fill="none" xmlns="http://www.w3.org/2000/svg">
<rect width="120" height="120" rx="32" fill="#F0F0FF"/>
<path fill-rule="evenodd" clip-rule="evenodd" d="M34.4004 60C34.4004 58.6746 35.4749 57.6 36.8004 57.6001L58.5188 57.6001L52.6369 51.2279C51.7378 50.254 51.7986 48.7356 52.7725 47.8365C53.7465 46.9375 55.2649 46.9982 56.1639 47.9722L65.7639 58.3722C66.6125 59.2915 66.6125 60.7086 65.7639 61.6279L56.1639 72.0279C55.2649 73.0019 53.7465 73.0626 52.7725 72.1636C51.7985 71.2645 51.7378 69.7461 52.6369 68.7722L58.5188 62.4001L36.8004 62.4001C35.4749 62.4001 34.4004 61.3255 34.4004 60ZM60.0004 86.4C60.0004 85.0746 61.0749 84 62.4004 84L76.8004 84C79.0095 84 80.8004 82.2092 80.8004 80L80.8004 40.0001C80.8004 37.7909 79.0095 36.0001 76.8004 36.0001L62.4004 36.0001C61.0749 36.0001 60.0004 34.9255 60.0004 33.6001C60.0004 32.2746 61.0749 31.2001 62.4004 31.2001L76.8004 31.2001C81.6605 31.2001 85.6004 35.1399 85.6004 40.0001L85.6004 80C85.6004 84.8602 81.6605 88.8 76.8004 88.8L62.4004 88.8C61.0749 88.8 60.0004 87.7255 60.0004 86.4Z" fill="#6563D4"/>
</svg>
