<svg width="56" height="48" viewBox="0 0 56 48" fill="none" xmlns="http://www.w3.org/2000/svg">
<rect width="56" height="48" rx="8" fill="#F0F0FF"/>
<path d="M28 14C26.0222 14 24.0888 14.5865 22.4443 15.6853C20.7998 16.7841 19.5181 18.3459 18.7612 20.1732C18.0043 22.0004 17.8063 24.0111 18.1922 25.9509C18.578 27.8907 19.5304 29.6725 20.9289 31.0711C22.3275 32.4696 24.1093 33.422 26.0491 33.8078C27.9889 34.1937 29.9996 33.9957 31.8268 33.2388C33.6541 32.4819 35.2159 31.2002 36.3147 29.5557C37.4135 27.9112 38 25.9778 38 24C37.9972 21.3487 36.9427 18.8068 35.068 16.932C33.1932 15.0573 30.6513 14.0028 28 14ZM28 32.4615C26.3265 32.4615 24.6905 31.9653 23.299 31.0355C21.9075 30.1057 20.823 28.7842 20.1826 27.2381C19.5421 25.6919 19.3746 23.9906 19.7011 22.3492C20.0275 20.7079 20.8334 19.2002 22.0168 18.0168C23.2002 16.8334 24.7079 16.0275 26.3492 15.701C27.9906 15.3746 29.6919 15.5421 31.2381 16.1826C32.7842 16.823 34.1057 17.9075 35.0355 19.299C35.9653 20.6905 36.4615 22.3265 36.4615 24C36.459 26.2434 35.5667 28.3941 33.9804 29.9804C32.3941 31.5667 30.2434 32.459 28 32.4615ZM23.3846 22.0769C23.3846 21.8487 23.4523 21.6256 23.5791 21.4359C23.7059 21.2461 23.8861 21.0982 24.0969 21.0109C24.3077 20.9236 24.5397 20.9007 24.7636 20.9452C24.9874 20.9898 25.193 21.0997 25.3544 21.261C25.5157 21.4224 25.6256 21.628 25.6701 21.8518C25.7147 22.0756 25.6918 22.3076 25.6045 22.5185C25.5171 22.7293 25.3693 22.9095 25.1795 23.0363C24.9898 23.1631 24.7667 23.2308 24.5385 23.2308C24.2324 23.2308 23.939 23.1092 23.7226 22.8928C23.5062 22.6764 23.3846 22.3829 23.3846 22.0769ZM32.6154 22.0769C32.6154 22.3051 32.5477 22.5282 32.4209 22.718C32.2941 22.9077 32.1139 23.0556 31.9031 23.1429C31.6923 23.2303 31.4603 23.2531 31.2364 23.2086C31.0126 23.1641 30.807 23.0542 30.6456 22.8928C30.4843 22.7314 30.3744 22.5259 30.3299 22.302C30.2853 22.0782 30.3082 21.8462 30.3955 21.6354C30.4829 21.4245 30.6307 21.2443 30.8205 21.1175C31.0102 20.9907 31.2333 20.9231 31.4615 20.9231C31.7676 20.9231 32.061 21.0446 32.2774 21.261C32.4938 21.4774 32.6154 21.7709 32.6154 22.0769ZM32.5125 26.6923C31.5231 28.4029 29.8779 29.3846 28 29.3846C26.1221 29.3846 24.4779 28.4038 23.4885 26.6923C23.4328 26.6048 23.3954 26.5068 23.3786 26.4045C23.3618 26.3021 23.3658 26.1974 23.3905 26.0966C23.4152 25.9959 23.46 25.9011 23.5222 25.8181C23.5845 25.7351 23.6629 25.6656 23.7527 25.6137C23.8425 25.5617 23.9419 25.5285 24.0449 25.516C24.1479 25.5035 24.2523 25.512 24.352 25.5409C24.4516 25.5698 24.5444 25.6185 24.6247 25.6842C24.705 25.7499 24.7711 25.8311 24.8192 25.9231C25.5375 27.1644 26.6663 27.8462 28 27.8462C29.3337 27.8462 30.4625 27.1635 31.1798 25.9231C31.2818 25.7463 31.4498 25.6174 31.6469 25.5645C31.844 25.5117 32.054 25.5393 32.2308 25.6413C32.4075 25.7434 32.5365 25.9114 32.5893 26.1085C32.6421 26.3056 32.6145 26.5156 32.5125 26.6923Z" fill="#6563D4"/>
<path d="M46 13.0769V9.84615C46 9.35652 45.8055 8.88695 45.4593 8.54073C45.1131 8.1945 44.6435 8 44.1538 8H40.9231C40.6783 8 40.4435 8.09725 40.2704 8.27036C40.0973 8.44347 40 8.67826 40 8.92308C40 9.16789 40.0973 9.40268 40.2704 9.57579C40.4435 9.7489 40.6783 9.84615 40.9231 9.84615H44.1538V13.0769C44.1538 13.3217 44.2511 13.5565 44.4242 13.7296C44.5973 13.9027 44.8321 14 45.0769 14C45.3217 14 45.5565 13.9027 45.7296 13.7296C45.9027 13.5565 46 13.3217 46 13.0769Z" fill="#6563D4"/>
<path d="M10 13.0769V9.84615C10 9.35652 10.1945 8.88695 10.5407 8.54073C10.8869 8.1945 11.3565 8 11.8462 8H15.0769C15.3217 8 15.5565 8.09725 15.7296 8.27036C15.9027 8.44347 16 8.67826 16 8.92308C16 9.16789 15.9027 9.40268 15.7296 9.57579C15.5565 9.7489 15.3217 9.84615 15.0769 9.84615H11.8462V13.0769C11.8462 13.3217 11.7489 13.5565 11.5758 13.7296C11.4027 13.9027 11.1679 14 10.9231 14C10.6783 14 10.4435 13.9027 10.2704 13.7296C10.0973 13.5565 10 13.3217 10 13.0769Z" fill="#6563D4"/>
<path d="M44.4242 34.2704C44.5973 34.0973 44.8321 34 45.0769 34C45.3217 34 45.5565 34.0973 45.7296 34.2704C45.9027 34.4435 46 34.6783 46 34.9231V38.1538C46 38.6435 45.8055 39.1131 45.4593 39.4593C45.1131 39.8055 44.6435 40 44.1538 40H40.9231C40.6783 40 40.4435 39.9027 40.2704 39.7296C40.0973 39.5565 40 39.3217 40 39.0769C40 38.8321 40.0973 38.5973 40.2704 38.4242C40.4435 38.2511 40.6783 38.1538 40.9231 38.1538H44.1538V34.9231C44.1538 34.6783 44.2511 34.4435 44.4242 34.2704Z" fill="#6563D4"/>
<path d="M11.5758 34.2704C11.4027 34.0973 11.1679 34 10.9231 34C10.6783 34 10.4435 34.0973 10.2704 34.2704C10.0973 34.4435 10 34.6783 10 34.9231V38.1538C10 38.6435 10.1945 39.1131 10.5407 39.4593C10.8869 39.8055 11.3565 40 11.8462 40H15.0769C15.3217 40 15.5565 39.9027 15.7296 39.7296C15.9027 39.5565 16 39.3217 16 39.0769C16 38.8321 15.9027 38.5973 15.7296 38.4242C15.5565 38.2511 15.3217 38.1538 15.0769 38.1538H11.8462V34.9231C11.8462 34.6783 11.7489 34.4435 11.5758 34.2704Z" fill="#6563D4"/>
</svg>
