<svg width="120" height="120" viewBox="0 0 120 120" fill="none" xmlns="http://www.w3.org/2000/svg">
    <rect width="120" height="120" rx="36" fill="#F0F0FF"/>
    <path d="M84 40V47C84 47.5304 83.7893 48.0391 83.4142 48.4142C83.0391 48.7893 82.5304 49 82 49C81.4696 49 80.9609 48.7893 80.5858 48.4142C80.2107 48.0391 80 47.5304 80 47V40H73C72.4696 40 71.9609 39.7893 71.5858 39.4142C71.2107 39.0391 71 38.5304 71 38C71 37.4696 71.2107 36.9609 71.5858 36.5858C71.9609 36.2107 72.4696 36 73 36H80C81.0609 36 82.0783 36.4214 82.8284 37.1716C83.5786 37.9217 84 38.9391 84 40ZM82 71C81.4696 71 80.9609 71.2107 80.5858 71.5858C80.2107 71.9609 80 72.4696 80 73V80H73C72.4696 80 71.9609 80.2107 71.5858 80.5858C71.2107 80.9609 71 81.4696 71 82C71 82.5304 71.2107 83.0391 71.5858 83.4142C71.9609 83.7893 72.4696 84 73 84H80C81.0609 84 82.0783 83.5786 82.8284 82.8284C83.5786 82.0783 84 81.0609 84 80V73C84 72.4696 83.7893 71.9609 83.4142 71.5858C83.0391 71.2107 82.5304 71 82 71ZM47 80H40V73C40 72.4696 39.7893 71.9609 39.4142 71.5858C39.0391 71.2107 38.5304 71 38 71C37.4696 71 36.9609 71.2107 36.5858 71.5858C36.2107 71.9609 36 72.4696 36 73V80C36 81.0609 36.4214 82.0783 37.1716 82.8284C37.9217 83.5786 38.9391 84 40 84H47C47.5304 84 48.0391 83.7893 48.4142 83.4142C48.7893 83.0391 49 82.5304 49 82C49 81.4696 48.7893 80.9609 48.4142 80.5858C48.0391 80.2107 47.5304 80 47 80ZM38 49C38.5304 49 39.0391 48.7893 39.4142 48.4142C39.7893 48.0391 40 47.5304 40 47V40H47C47.5304 40 48.0391 39.7893 48.4142 39.4142C48.7893 39.0391 49 38.5304 49 38C49 37.4696 48.7893 36.9609 48.4142 36.5858C48.0391 36.2107 47.5304 36 47 36H40C38.9391 36 37.9217 36.4214 37.1716 37.1716C36.4214 37.9217 36 38.9391 36 40V47C36 47.5304 36.2107 48.0391 36.5858 48.4142C36.9609 48.7893 37.4696 49 38 49ZM72 72C71.6893 72.0007 71.3827 71.929 71.1046 71.7905C70.8264 71.6521 70.5843 71.4508 70.3975 71.2025C69.1866 69.588 67.6164 68.2775 65.8113 67.3749C64.0062 66.4724 62.0157 66.0025 59.9975 66.0025C57.9793 66.0025 55.9888 66.4724 54.1837 67.3749C52.3786 68.2775 50.8084 69.588 49.5975 71.2025C49.2786 71.6268 48.8041 71.9071 48.2786 71.9817C47.753 72.0562 47.2193 71.9189 46.795 71.6C46.3707 71.2811 46.0904 70.8066 46.0158 70.2811C45.9413 69.7555 46.0786 69.2218 46.3975 68.7975C48.17 66.4242 50.5323 64.5557 53.25 63.3775C51.7608 62.0178 50.7174 60.2397 50.2568 58.2765C49.7962 56.3133 49.94 54.2566 50.6691 52.3766C51.3983 50.4965 52.6788 48.8807 54.3427 47.7414C56.0065 46.6021 57.976 45.9925 59.9925 45.9925C62.009 45.9925 63.9785 46.6021 65.6423 47.7414C67.3062 48.8807 68.5867 50.4965 69.3159 52.3766C70.045 54.2566 70.1888 56.3133 69.7282 58.2765C69.2676 60.2397 68.2242 62.0178 66.735 63.3775C69.4545 64.555 71.8186 66.4235 73.5925 68.7975C73.8157 69.0941 73.9519 69.447 73.986 69.8167C74.02 70.1863 73.9505 70.5581 73.7852 70.8905C73.6199 71.2229 73.3654 71.5027 73.0501 71.6987C72.7348 71.8946 72.3712 71.999 72 72ZM60 62C61.1867 62 62.3467 61.6481 63.3334 60.9888C64.3201 60.3295 65.0892 59.3925 65.5433 58.2961C65.9974 57.1997 66.1162 55.9933 65.8847 54.8295C65.6532 53.6656 65.0818 52.5965 64.2426 51.7574C63.4035 50.9182 62.3344 50.3468 61.1705 50.1153C60.0067 49.8838 58.8003 50.0026 57.7039 50.4567C56.6075 50.9108 55.6705 51.6799 55.0112 52.6666C54.3519 53.6533 54 54.8133 54 56C54 57.5913 54.6321 59.1174 55.7574 60.2426C56.8826 61.3679 58.4087 62 60 62Z" fill="#6464D1"/>
</svg>
