<svg width="120" height="120" viewBox="0 0 120 120" fill="none" xmlns="http://www.w3.org/2000/svg">
<rect width="120" height="120" rx="36" fill="#F0F0FF"/>
<path fill-rule="evenodd" clip-rule="evenodd" d="M31.2002 46.4001C31.2002 41.54 35.1401 37.6001 40.0002 37.6001H80.0002C84.8603 37.6001 88.8002 41.54 88.8002 46.4001V73.6001C88.8002 78.4602 84.8603 82.4001 80.0002 82.4001H40.0002C35.1401 82.4001 31.2002 78.4602 31.2002 73.6001V46.4001ZM40.0002 42.4001C37.7911 42.4001 36.0002 44.191 36.0002 46.4001V53.6001H84.0002V46.4001C84.0002 44.191 82.2093 42.4001 80.0002 42.4001H40.0002ZM84.0002 58.4001H36.0002V73.6001C36.0002 75.8092 37.7911 77.6001 40.0002 77.6001H80.0002C82.2093 77.6001 84.0002 75.8092 84.0002 73.6001V58.4001ZM40.8002 68.8001C40.8002 67.4746 41.8747 66.4001 43.2002 66.4001H54.4002C55.7257 66.4001 56.8002 67.4746 56.8002 68.8001C56.8002 70.1256 55.7257 71.2001 54.4002 71.2001H43.2002C41.8747 71.2001 40.8002 70.1256 40.8002 68.8001Z" fill="#6464D1"/>
</svg>
