<svg width="56" height="48" viewBox="0 0 56 48" fill="none" xmlns="http://www.w3.org/2000/svg">
<rect width="56" height="48" rx="8" fill="#F0F0FF"/>
<path d="M35.875 14.375C35.6429 14.375 35.4204 14.4672 35.2563 14.6313C35.0922 14.7954 35 15.0179 35 15.25C35 15.4821 35.0922 15.7046 35.2563 15.8687C35.4204 16.0328 35.6429 16.125 35.875 16.125C36.3391 16.125 36.7842 16.3094 37.1124 16.6376C37.4406 16.9658 37.625 17.4109 37.625 17.875V24.2275C37.0081 23.7187 36.2742 23.3717 35.4895 23.2178C34.7049 23.0638 33.8942 23.1078 33.1309 23.3458C32.3675 23.5838 31.6754 24.0082 31.1172 24.5807C30.559 25.1532 30.1523 25.8558 29.9337 26.625H26.0662C25.8477 25.8558 25.441 25.1532 24.8828 24.5807C24.3246 24.0082 23.6325 23.5838 22.8691 23.3458C22.1058 23.1078 21.2951 23.0638 20.5105 23.2178C19.7258 23.3717 18.9919 23.7187 18.375 24.2275V17.875C18.375 17.4109 18.5594 16.9658 18.8876 16.6376C19.2158 16.3094 19.6609 16.125 20.125 16.125C20.3571 16.125 20.5796 16.0328 20.7437 15.8687C20.9078 15.7046 21 15.4821 21 15.25C21 15.0179 20.9078 14.7954 20.7437 14.6313C20.5796 14.4672 20.3571 14.375 20.125 14.375C19.1967 14.375 18.3065 14.7437 17.6501 15.4001C16.9937 16.0565 16.625 16.9467 16.625 17.875V27.9375C16.6274 29.1744 17.1058 30.3628 17.9611 31.2563C18.8164 32.1497 19.9829 32.6796 21.2185 32.7359C22.4541 32.7921 23.6639 32.3705 24.5969 31.5586C25.5299 30.7466 26.1144 29.6065 26.2292 28.375H29.7708C29.8856 29.6065 30.4701 30.7466 31.4031 31.5586C32.3361 32.3705 33.5459 32.7921 34.7815 32.7359C36.0171 32.6796 37.1835 32.1497 38.0389 31.2563C38.8942 30.3628 39.3726 29.1744 39.375 27.9375V17.875C39.375 16.9467 39.0063 16.0565 38.3499 15.4001C37.6935 14.7437 36.8033 14.375 35.875 14.375ZM21.4375 31C20.8318 31 20.2397 30.8204 19.7361 30.4839C19.2324 30.1474 18.8399 29.6691 18.6081 29.1095C18.3763 28.5499 18.3157 27.9341 18.4338 27.34C18.552 26.746 18.8437 26.2003 19.272 25.772C19.7003 25.3437 20.246 25.052 20.84 24.9338C21.4341 24.8157 22.0499 24.8763 22.6095 25.1081C23.1691 25.3399 23.6474 25.7324 23.9839 26.2361C24.3204 26.7397 24.5 27.3318 24.5 27.9375C24.5 28.7497 24.1773 29.5287 23.603 30.103C23.0287 30.6773 22.2497 31 21.4375 31ZM34.5625 31C33.9568 31 33.3647 30.8204 32.8611 30.4839C32.3574 30.1474 31.9649 29.6691 31.7331 29.1095C31.5013 28.5499 31.4407 27.9341 31.5588 27.34C31.677 26.746 31.9687 26.2003 32.397 25.772C32.8253 25.3437 33.371 25.052 33.965 24.9338C34.5591 24.8157 35.1749 24.8763 35.7345 25.1081C36.2941 25.3399 36.7724 25.7324 37.1089 26.2361C37.4454 26.7397 37.625 27.3318 37.625 27.9375C37.625 28.7497 37.3023 29.5287 36.728 30.103C36.1537 30.6773 35.3747 31 34.5625 31Z" fill="#6563D4"/>
</svg>
