<svg width="56" height="48" viewBox="0 0 56 48" fill="none" xmlns="http://www.w3.org/2000/svg">
<rect width="56" height="48" rx="8" fill="#F0F0FF"/>
<path d="M33.2501 35.375C33.2501 35.607 33.158 35.8296 32.9939 35.9937C32.8298 36.1578 32.6072 36.25 32.3751 36.25H23.6251C23.3931 36.25 23.1705 36.1578 23.0064 35.9937C22.8423 35.8296 22.7501 35.607 22.7501 35.375C22.7501 35.1429 22.8423 34.9204 23.0064 34.7563C23.1705 34.5922 23.3931 34.5 23.6251 34.5H32.3751C32.6072 34.5 32.8298 34.5922 32.9939 34.7563C33.158 34.9204 33.2501 35.1429 33.2501 35.375ZM37.6251 21.375C37.6289 22.8337 37.2994 24.2739 36.6617 25.5858C36.0241 26.8977 35.0951 28.0466 33.9458 28.9448C33.7309 29.1096 33.5565 29.3212 33.4359 29.5637C33.3153 29.8062 33.2518 30.073 33.2501 30.3437V31C33.2501 31.4641 33.0658 31.9092 32.7376 32.2374C32.4094 32.5656 31.9643 32.75 31.5001 32.75H24.5001C24.036 32.75 23.5909 32.5656 23.2627 32.2374C22.9345 31.9092 22.7501 31.4641 22.7501 31V30.3437C22.75 30.0762 22.6884 29.8123 22.5703 29.5722C22.4522 29.3322 22.2806 29.1224 22.0687 28.959C20.9224 28.0663 19.9942 26.9245 19.3543 25.62C18.7144 24.3155 18.3795 22.8826 18.3751 21.4297C18.3467 16.2158 22.5598 11.8758 27.7683 11.75C29.0516 11.7191 30.3282 11.9452 31.5228 12.415C32.7175 12.8848 33.8061 13.5889 34.7246 14.4858C35.643 15.3826 36.3728 16.4542 36.871 17.6373C37.3691 18.8204 37.6255 20.0913 37.6251 21.375ZM35.8751 21.375C35.8755 20.3246 35.6656 19.2848 35.258 18.3167C34.8504 17.3487 34.2533 16.4719 33.5017 15.7381C32.7502 15.0043 31.8595 14.4283 30.8819 14.0439C29.9044 13.6595 28.8599 13.4746 27.8098 13.5C23.5442 13.6006 20.1022 17.152 20.1251 21.4176C20.1291 22.6061 20.4033 23.7781 20.927 24.845C21.4508 25.9118 22.2104 26.8455 23.1483 27.5755C23.5698 27.9032 23.9108 28.323 24.1452 28.8029C24.3795 29.2827 24.5009 29.8098 24.5001 30.3437V31H27.1251V26.112L23.8811 22.869C23.7169 22.7049 23.6247 22.4822 23.6247 22.25C23.6247 22.0178 23.7169 21.7951 23.8811 21.6309C24.0453 21.4667 24.2679 21.3745 24.5001 21.3745C24.7323 21.3745 24.955 21.4667 25.1192 21.6309L28.0001 24.513L30.8811 21.6309C30.9624 21.5496 31.0589 21.4851 31.1651 21.4411C31.2713 21.3971 31.3852 21.3745 31.5001 21.3745C31.6151 21.3745 31.729 21.3971 31.8352 21.4411C31.9414 21.4851 32.0379 21.5496 32.1192 21.6309C32.2005 21.7122 32.265 21.8087 32.309 21.915C32.353 22.0212 32.3756 22.135 32.3756 22.25C32.3756 22.365 32.353 22.4788 32.309 22.585C32.265 22.6912 32.2005 22.7878 32.1192 22.869L28.8751 26.112V31H31.5001V30.3437C31.5011 29.8082 31.6245 29.28 31.8609 28.7994C32.0973 28.3189 32.4404 27.8987 32.864 27.5711C33.8048 26.8359 34.5651 25.8955 35.0869 24.8216C35.6088 23.7478 35.8784 22.5689 35.8751 21.375Z" fill="#6563D4"/>
</svg>
