<svg width="120" height="120" viewBox="0 0 120 120" fill="none" xmlns="http://www.w3.org/2000/svg">
<rect width="120" height="120" rx="36" fill="#F0F0FF"/>
<path d="M36 36L84 84M53.4545 40.3636H66.5455L70.9091 46.9091H79.6364C80.7937 46.9091 81.9036 47.3688 82.7219 48.1872C83.5403 49.0055 84 50.1154 84 51.2727V71.6509M67.1564 67.1564C66.4322 68.2147 65.4838 69.1004 64.3785 69.7505C63.2732 70.4006 62.0382 70.7992 60.7613 70.9178C59.4845 71.0365 58.1972 70.8723 56.9911 70.4369C55.7849 70.0016 54.6895 69.3058 53.7827 68.3991C52.876 67.4923 52.1802 66.3969 51.7449 65.1908C51.3095 63.9846 51.1454 62.6973 51.264 61.4205C51.3827 60.1437 51.7812 58.9087 52.4313 57.8034C53.0815 56.6981 53.9672 55.7496 55.0255 55.0255M79.6364 79.6364H40.3636C39.2063 79.6364 38.0964 79.1766 37.2781 78.3583C36.4597 77.5399 36 76.43 36 75.2727V51.2727C36 50.1154 36.4597 49.0055 37.2781 48.1872C38.0964 47.3688 39.2063 46.9091 40.3636 46.9091H46.9091L79.6364 79.6364Z" stroke="#6563D4" stroke-width="5" stroke-linecap="round" stroke-linejoin="round"/>
</svg>
