<svg width="56" height="48" viewBox="0 0 56 48" fill="none" xmlns="http://www.w3.org/2000/svg">
<rect width="56" height="48" rx="8" fill="#F0F0FF"/>
<path d="M29.5005 33.4997C29.5005 33.7963 29.4125 34.0863 29.2477 34.333C29.0829 34.5797 28.8486 34.772 28.5745 34.8855C28.3004 34.999 27.9988 35.0287 27.7078 34.9708C27.4169 34.913 27.1496 34.7701 26.9398 34.5603C26.73 34.3505 26.5872 34.0833 26.5293 33.7923C26.4714 33.5013 26.5011 33.1997 26.6147 32.9256C26.7282 32.6516 26.9204 32.4173 27.1671 32.2525C27.4138 32.0876 27.7038 31.9997 28.0005 31.9997C28.3983 31.9997 28.7798 32.1577 29.0611 32.439C29.3424 32.7203 29.5005 33.1018 29.5005 33.4997ZM41.6355 18.8747C37.7911 15.7214 32.9726 13.998 28.0005 13.998C23.0283 13.998 18.2099 15.7214 14.3655 18.8747C14.2639 18.9581 14.1798 19.0606 14.1179 19.1765C14.0561 19.2924 14.0176 19.4194 14.0048 19.5501C13.992 19.6809 14.005 19.8129 14.0432 19.9386C14.0814 20.0643 14.144 20.1813 14.2273 20.2828C14.3107 20.3843 14.4133 20.4684 14.5292 20.5303C14.6451 20.5922 14.772 20.6307 14.9028 20.6435C15.1669 20.6694 15.4304 20.5893 15.6355 20.4209C19.122 17.5618 23.4916 15.9993 28.0005 15.9993C32.5094 15.9993 36.879 17.5618 40.3655 20.4209C40.5705 20.5893 40.8341 20.6694 41.0981 20.6435C41.3622 20.6176 41.6052 20.4878 41.7736 20.2828C41.942 20.0777 42.0221 19.8142 41.9962 19.5501C41.9703 19.286 41.8405 19.0431 41.6355 18.8747ZM37.6255 23.3459C34.8871 21.1779 31.4969 19.9983 28.0042 19.9983C24.5116 19.9983 21.1213 21.1779 18.383 23.3459C18.1751 23.5107 18.0412 23.7513 18.0107 24.0148C17.9803 24.2782 18.0557 24.5431 18.2205 24.7509C18.3852 24.9588 18.6258 25.0927 18.8893 25.1232C19.1528 25.1536 19.4176 25.0782 19.6255 24.9134C22.0103 23.0257 24.9627 21.9986 28.0042 21.9986C31.0457 21.9986 33.9981 23.0257 36.383 24.9134C36.4859 24.995 36.6039 25.0555 36.7302 25.0915C36.8565 25.1275 36.9887 25.1383 37.1191 25.1232C37.2496 25.1081 37.3758 25.0675 37.4906 25.0036C37.6053 24.9397 37.7064 24.8539 37.788 24.7509C37.8696 24.648 37.9301 24.53 37.9661 24.4037C38.0021 24.2774 38.0128 24.1452 37.9978 24.0148C37.9827 23.8843 37.942 23.7581 37.8781 23.6433C37.8143 23.5285 37.7284 23.4275 37.6255 23.3459ZM33.593 27.8159C31.9686 26.6354 30.0122 25.9996 28.0042 25.9996C25.9962 25.9996 24.0398 26.6354 22.4155 27.8159C22.201 27.9721 22.0573 28.207 22.016 28.4691C21.9748 28.7312 22.0393 28.9989 22.1955 29.2134C22.3516 29.4279 22.5866 29.5716 22.8487 29.6128C23.1107 29.6541 23.3785 29.5896 23.593 29.4334C24.8749 28.5011 26.4192 27.999 28.0042 27.999C29.5893 27.999 31.1336 28.5011 32.4155 29.4334C32.5217 29.5107 32.6421 29.5664 32.7698 29.5972C32.8975 29.6279 33.03 29.6333 33.1598 29.6128C33.2896 29.5924 33.414 29.5466 33.5261 29.4781C33.6382 29.4096 33.7357 29.3196 33.813 29.2134C33.8903 29.1072 33.9459 28.9868 33.9767 28.8591C34.0075 28.7314 34.0128 28.5989 33.9924 28.4691C33.972 28.3393 33.9262 28.2149 33.8577 28.1028C33.7891 27.9907 33.6992 27.8932 33.593 27.8159Z" fill="#6563D4"/>
</svg>
