<svg width="56" height="48" viewBox="0 0 56 48" fill="none" xmlns="http://www.w3.org/2000/svg">
<rect width="56" height="48" rx="8" fill="#F0F0FF"/>
<path d="M34.0002 37C34.0002 37.2652 33.8948 37.5196 33.7073 37.7071C33.5197 37.8947 33.2654 38 33.0002 38H23.0002C22.7349 38 22.4806 37.8947 22.2931 37.7071C22.1055 37.5196 22.0002 37.2652 22.0002 37C22.0002 36.7348 22.1055 36.4804 22.2931 36.2929C22.4806 36.1054 22.7349 36 23.0002 36H33.0002C33.2654 36 33.5197 36.1054 33.7073 36.2929C33.8948 36.4804 34.0002 36.7348 34.0002 37ZM39.0002 21C39.0045 22.6671 38.6279 24.3131 37.8991 25.8124C37.1704 27.3117 36.1087 28.6248 34.7952 29.6513C34.5496 29.8395 34.3502 30.0815 34.2125 30.3585C34.0747 30.6356 34.0021 30.9406 34.0002 31.25V32C34.0002 32.5305 33.7894 33.0392 33.4144 33.4142C33.0393 33.7893 32.5306 34 32.0002 34H24.0002C23.4697 34 22.961 33.7893 22.586 33.4142C22.2109 33.0392 22.0002 32.5305 22.0002 32V31.25C22 30.9443 21.9297 30.6426 21.7947 30.3683C21.6597 30.094 21.4635 29.8542 21.2214 29.6675C19.9112 28.6471 18.8502 27.3419 18.1189 25.8509C17.3876 24.3599 17.005 22.722 17.0002 21.0613C16.9677 15.1038 21.7827 10.1425 27.7352 10C29.2018 9.96467 30.6608 10.2231 32.0261 10.76C33.3914 11.297 34.6355 12.1016 35.6852 13.1266C36.7349 14.1516 37.5689 15.3762 38.1382 16.7284C38.7075 18.0805 39.0006 19.5329 39.0002 21ZM37.0002 21C37.0005 19.7996 36.7607 18.6112 36.2949 17.5049C35.8291 16.3985 35.1466 15.3965 34.2877 14.5579C33.4288 13.7193 32.4108 13.0609 31.2936 12.6217C30.1765 12.1824 28.9827 11.971 27.7827 12C22.9077 12.115 18.9739 16.1738 19.0002 21.0488C19.0047 22.407 19.3182 23.7464 19.9167 24.9656C20.5153 26.1849 21.3833 27.252 22.4552 28.0863C22.937 28.4608 23.3267 28.9406 23.5945 29.489C23.8623 30.0374 24.001 30.6398 24.0002 31.25V32H32.0002V31.25C32.0016 30.638 32.1427 30.0344 32.4128 29.4853C32.683 28.9361 33.075 28.4559 33.5589 28.0813C34.634 27.2411 35.503 26.1663 36.0994 24.9391C36.6958 23.7118 37.0039 22.3645 37.0002 21ZM34.9864 19.8325C34.7271 18.3841 34.0303 17.05 32.9897 16.0096C31.9492 14.9693 30.6149 14.2728 29.1664 14.0138C29.0369 13.9919 28.9043 13.9958 28.7763 14.0252C28.6483 14.0546 28.5274 14.1089 28.4203 14.1851C28.3133 14.2612 28.2223 14.3577 28.1526 14.469C28.0829 14.5803 28.0357 14.7043 28.0139 14.8338C27.9921 14.9633 27.996 15.0958 28.0254 15.2238C28.0548 15.3519 28.1091 15.4728 28.1852 15.5798C28.2614 15.6869 28.3578 15.7778 28.4691 15.8476C28.5804 15.9173 28.7044 15.9644 28.8339 15.9863C30.9052 16.335 32.6627 18.0925 33.0139 20.1675C33.0535 20.4004 33.1742 20.6118 33.3548 20.7642C33.5353 20.9166 33.7639 21.0001 34.0002 21C34.0567 20.9997 34.1131 20.9951 34.1689 20.9863C34.4303 20.9416 34.6633 20.795 34.8166 20.5787C34.9699 20.3623 35.031 20.0939 34.9864 19.8325Z" fill="#6563D4"/>
</svg>
