<svg width="56" height="48" viewBox="0 0 56 48" fill="none" xmlns="http://www.w3.org/2000/svg">
<rect width="56" height="48" rx="8" fill="#F0F0FF"/>
<path d="M28 11C25.4288 11 22.9154 11.7624 20.7776 13.1909C18.6398 14.6194 16.9735 16.6497 15.9896 19.0251C15.0056 21.4006 14.7482 24.0144 15.2498 26.5362C15.7514 29.0579 16.9895 31.3743 18.8076 33.1924C20.6257 35.0105 22.9421 36.2486 25.4638 36.7502C27.9856 37.2518 30.5995 36.9944 32.9749 36.0104C35.3503 35.0265 37.3807 33.3603 38.8091 31.2224C40.2376 29.0846 41 26.5712 41 24C40.9964 20.5533 39.6256 17.2488 37.1884 14.8116C34.7512 12.3744 31.4467 11.0036 28 11ZM28 35C25.8244 35 23.6977 34.3549 21.8887 33.1462C20.0798 31.9375 18.6699 30.2195 17.8373 28.2095C17.0048 26.1995 16.7869 23.9878 17.2114 21.854C17.6358 19.7202 18.6835 17.7602 20.2218 16.2218C21.7602 14.6834 23.7202 13.6358 25.854 13.2114C27.9878 12.7869 30.1995 13.0048 32.2095 13.8373C34.2195 14.6699 35.9375 16.0798 37.1462 17.8887C38.3549 19.6977 39 21.8244 39 24C38.9967 26.9164 37.8367 29.7123 35.7745 31.7745C33.7123 33.8367 30.9164 34.9967 28 35ZM36 24C36 24.2652 35.8946 24.5196 35.7071 24.7071C35.5196 24.8946 35.2652 25 35 25H28C27.7348 25 27.4804 24.8946 27.2929 24.7071C27.1054 24.5196 27 24.2652 27 24V17C27 16.7348 27.1054 16.4804 27.2929 16.2929C27.4804 16.1054 27.7348 16 28 16C28.2652 16 28.5196 16.1054 28.7071 16.2929C28.8946 16.4804 29 16.7348 29 17V23H35C35.2652 23 35.5196 23.1054 35.7071 23.2929C35.8946 23.4804 36 23.7348 36 24Z" fill="#6563D4"/>
</svg>
