<svg width="120" height="120" viewBox="0 0 120 120" fill="none" xmlns="http://www.w3.org/2000/svg">
<rect width="120" height="120" rx="32" fill="#F0F0FF"/>
<path d="M87.2007 75.0227L65.3382 37.0552C64.7919 36.125 64.012 35.3537 63.0757 34.8178C62.1395 34.2819 61.0795 34 60.0007 34C58.922 34 57.8619 34.2819 56.9257 34.8178C55.9895 35.3537 55.2095 36.125 54.6632 37.0552L32.8007 75.0227C32.2751 75.9224 31.998 76.9457 31.998 77.9877C31.998 79.0297 32.2751 80.053 32.8007 80.9527C33.3401 81.8885 34.1187 82.6639 35.0566 83.1995C35.9946 83.735 37.0582 84.0114 38.1382 84.0002H81.8632C82.9424 84.0105 84.005 83.7337 84.942 83.1982C85.879 82.6627 86.6568 81.8877 87.1957 80.9527C87.7221 80.0534 88 79.0304 88.0009 77.9883C88.0018 76.9463 87.7256 75.9228 87.2007 75.0227ZM83.7332 78.9502C83.5426 79.2753 83.269 79.5439 82.9404 79.7284C82.6118 79.9129 82.24 80.0067 81.8632 80.0002H38.1382C37.7614 80.0067 37.3897 79.9129 37.0611 79.7284C36.7324 79.5439 36.4588 79.2753 36.2682 78.9502C36.0956 78.6579 36.0045 78.3246 36.0045 77.9852C36.0045 77.6457 36.0956 77.3125 36.2682 77.0202L58.1307 39.0527C58.3252 38.7291 58.6 38.4614 58.9286 38.2755C59.2572 38.0896 59.6282 37.9919 60.0057 37.9919C60.3832 37.9919 60.7543 38.0896 61.0829 38.2755C61.4114 38.4614 61.6863 38.7291 61.8807 39.0527L83.7432 77.0202C83.9144 77.3133 84.0037 77.6471 84.0019 77.9865C84.0002 78.326 83.9074 78.6588 83.7332 78.9502ZM58.0007 64.0002V54.0002C58.0007 53.4697 58.2114 52.961 58.5865 52.586C58.9616 52.2109 59.4703 52.0002 60.0007 52.0002C60.5312 52.0002 61.0399 52.2109 61.4149 52.586C61.79 52.961 62.0007 53.4697 62.0007 54.0002V64.0002C62.0007 64.5306 61.79 65.0393 61.4149 65.4144C61.0399 65.7895 60.5312 66.0002 60.0007 66.0002C59.4703 66.0002 58.9616 65.7895 58.5865 65.4144C58.2114 65.0393 58.0007 64.5306 58.0007 64.0002ZM63.0007 73.0002C63.0007 73.5935 62.8248 74.1735 62.4951 74.6669C62.1655 75.1602 61.697 75.5447 61.1488 75.7718C60.6006 75.9989 59.9974 76.0583 59.4155 75.9425C58.8335 75.8268 58.299 75.541 57.8794 75.1215C57.4599 74.7019 57.1741 74.1674 57.0584 73.5854C56.9426 73.0035 57.002 72.4003 57.2291 71.8521C57.4562 71.3039 57.8407 70.8354 58.334 70.5058C58.8274 70.1761 59.4074 70.0002 60.0007 70.0002C60.7964 70.0002 61.5594 70.3162 62.122 70.8788C62.6847 71.4415 63.0007 72.2045 63.0007 73.0002Z" fill="#6563D4"/>
</svg>
