<svg width="120" height="120" viewBox="0 0 120 120" fill="none" xmlns="http://www.w3.org/2000/svg">
    <rect width="120" height="120" rx="36" fill="#F0F0FF"/>
    <path d="M63.9996 48.0001C63.9996 47.4696 64.2103 46.9609 64.5854 46.5858C64.9604 46.2108 65.4691 46.0001 65.9996 46.0001H89.9996C90.53 46.0001 91.0387 46.2108 91.4138 46.5858C91.7889 46.9609 91.9996 47.4696 91.9996 48.0001C91.9996 48.5305 91.7889 49.0392 91.4138 49.4143C91.0387 49.7893 90.53 50.0001 89.9996 50.0001H65.9996C65.4691 50.0001 64.9604 49.7893 64.5854 49.4143C64.2103 49.0392 63.9996 48.5305 63.9996 48.0001ZM89.9996 58.0001H65.9996C65.4691 58.0001 64.9604 58.2108 64.5854 58.5858C64.2103 58.9609 63.9996 59.4696 63.9996 60.0001C63.9996 60.5305 64.2103 61.0392 64.5854 61.4143C64.9604 61.7893 65.4691 62.0001 65.9996 62.0001H89.9996C90.53 62.0001 91.0387 61.7893 91.4138 61.4143C91.7889 61.0392 91.9996 60.5305 91.9996 60.0001C91.9996 59.4696 91.7889 58.9609 91.4138 58.5858C91.0387 58.2108 90.53 58.0001 89.9996 58.0001ZM89.9996 70.0001H71.9996C71.4691 70.0001 70.9604 70.2108 70.5854 70.5858C70.2103 70.9609 69.9996 71.4696 69.9996 72.0001C69.9996 72.5305 70.2103 73.0392 70.5854 73.4143C70.9604 73.7893 71.4691 74.0001 71.9996 74.0001H89.9996C90.53 74.0001 91.0387 73.7893 91.4138 73.4143C91.7889 73.0392 91.9996 72.5305 91.9996 72.0001C91.9996 71.4696 91.7889 70.9609 91.4138 70.5858C91.0387 70.2108 90.53 70.0001 89.9996 70.0001ZM65.9371 75.5001C66.0025 75.7545 66.0171 76.0193 65.9801 76.2794C65.9431 76.5395 65.8552 76.7897 65.7215 77.0159C65.5878 77.242 65.4108 77.4395 65.2007 77.5973C64.9906 77.755 64.7515 77.8698 64.4971 77.9351C64.3341 77.979 64.1659 78.0009 63.9971 78.0001C63.5535 78.0003 63.1225 77.853 62.7717 77.5815C62.421 77.31 62.1705 76.9295 62.0596 76.5001C60.5196 70.5151 54.4746 66.0001 47.9971 66.0001C41.5196 66.0001 35.4746 70.5126 33.9346 76.5001C33.802 77.0139 33.4707 77.454 33.0135 77.7236C32.5564 77.9932 32.0109 78.0702 31.4971 77.9376C30.9832 77.805 30.5431 77.4736 30.2735 77.0165C30.0039 76.5594 29.927 76.0139 30.0596 75.5001C31.4571 70.0726 35.5196 65.6776 40.6746 63.5001C38.6897 61.9712 37.233 59.8594 36.509 57.4609C35.785 55.0623 35.8299 52.4973 36.6374 50.1255C37.445 47.7538 38.9746 45.6943 41.0118 44.2358C43.049 42.7774 45.4916 41.9932 47.9971 41.9932C50.5025 41.9932 52.9451 42.7774 54.9824 44.2358C57.0196 45.6943 58.5492 47.7538 59.3567 50.1255C60.1642 52.4973 60.2091 55.0623 59.4851 57.4609C58.7611 59.8594 57.3045 61.9712 55.3196 63.5001C60.4771 65.6776 64.5396 70.0726 65.9371 75.5001ZM47.9996 62.0001C49.5818 62.0001 51.1285 61.5309 52.4441 60.6518C53.7597 59.7728 54.7851 58.5233 55.3906 57.0615C55.9961 55.5997 56.1545 53.9912 55.8459 52.4393C55.5372 50.8875 54.7753 49.462 53.6564 48.3432C52.5376 47.2244 51.1121 46.4625 49.5603 46.1538C48.0085 45.8451 46.3999 46.0035 44.9381 46.609C43.4763 47.2145 42.2269 48.2399 41.3478 49.5555C40.4688 50.8711 39.9996 52.4178 39.9996 54.0001C39.9996 56.1218 40.8424 58.1566 42.3427 59.6569C43.843 61.1572 45.8778 62.0001 47.9996 62.0001Z" fill="#6464D1"/>
</svg>
