<svg width="129" height="128" viewBox="0 0 129 128" fill="none" xmlns="http://www.w3.org/2000/svg">
<path d="M0.5 24C0.5 10.7452 11.2452 0 24.5 0H104.5C117.755 0 128.5 10.7452 128.5 24V104C128.5 117.255 117.755 128 104.5 128H24.5C11.2452 128 0.5 117.255 0.5 104V24Z" fill="#02B302" fill-opacity="0.079"/>
<path d="M78.7688 54.7312C79.0012 54.9634 79.1856 55.2392 79.3114 55.5426C79.4372 55.8461 79.502 56.1715 79.502 56.5C79.502 56.8285 79.4372 57.1539 79.3114 57.4574C79.1856 57.7608 79.0012 58.0366 78.7688 58.2688L61.2688 75.7688C61.0366 76.0012 60.7609 76.1856 60.4574 76.3114C60.1539 76.4372 59.8286 76.502 59.5 76.502C59.1715 76.502 58.8462 76.4372 58.5427 76.3114C58.2392 76.1856 57.9634 76.0012 57.7313 75.7688L50.2313 68.2688C49.7622 67.7996 49.4986 67.1634 49.4986 66.5C49.4986 65.8366 49.7622 65.2004 50.2313 64.7312C50.7004 64.2621 51.3366 63.9986 52 63.9986C52.6634 63.9986 53.2997 64.2621 53.7688 64.7312L59.5 70.4656L75.2313 54.7312C75.4634 54.4988 75.7392 54.3144 76.0427 54.1886C76.3462 54.0628 76.6715 53.998 77 53.998C77.3286 53.998 77.6539 54.0628 77.9574 54.1886C78.2609 54.3144 78.5366 54.4988 78.7688 54.7312ZM97 64C97 70.4279 95.0939 76.7114 91.5228 82.056C87.9516 87.4006 82.8758 91.5662 76.9372 94.0261C70.9986 96.4859 64.464 97.1295 58.1596 95.8755C51.8552 94.6215 46.0643 91.5262 41.519 86.981C36.9738 82.4358 33.8785 76.6448 32.6245 70.3404C31.3705 64.0361 32.0141 57.5014 34.4739 51.5628C36.9338 45.6242 41.0994 40.5484 46.444 36.9772C51.7886 33.4061 58.0721 31.5 64.5 31.5C73.1168 31.5091 81.378 34.9361 87.4709 41.0291C93.5639 47.122 96.9909 55.3833 97 64ZM92 64C92 58.561 90.3872 53.2442 87.3654 48.7218C84.3437 44.1995 80.0488 40.6747 75.0238 38.5933C69.9988 36.5119 64.4695 35.9673 59.135 37.0284C53.8006 38.0895 48.9005 40.7086 45.0546 44.5546C41.2086 48.4005 38.5895 53.3005 37.5284 58.635C36.4673 63.9695 37.0119 69.4988 39.0933 74.5238C41.1747 79.5488 44.6995 83.8437 49.2218 86.8654C53.7442 89.8872 59.061 91.5 64.5 91.5C71.7909 91.4917 78.7809 88.5918 83.9363 83.4363C89.0918 78.2808 91.9917 71.2909 92 64Z" fill="#46A758"/>
</svg>
