<svg width="132" height="132" viewBox="0 0 132 132" fill="none" xmlns="http://www.w3.org/2000/svg">
    <path d="M54.5 23H30.5C28.6435 23 26.863 23.7375 25.5503 25.0503C24.2375 26.363 23.5 28.1435 23.5 30V54C23.5 54.9193 23.6811 55.8295 24.0328 56.6788C24.3846 57.5281 24.9002 58.2997 25.5503 58.9497C26.2003 59.5998 26.9719 60.1154 27.8212 60.4672C28.6705 60.8189 29.5807 61 30.5 61H54.5C55.4193 61 56.3295 60.8189 57.1788 60.4672C58.0281 60.1154 58.7997 59.5998 59.4497 58.9497C60.0998 58.2997 60.6154 57.5281 60.9672 56.6788C61.3189 55.8295 61.5 54.9193 61.5 54V30C61.5 29.0807 61.3189 28.1705 60.9672 27.3212C60.6154 26.4719 60.0998 25.7003 59.4497 25.0503C58.7997 24.4002 58.0281 23.8846 57.1788 23.5328C56.3295 23.1811 55.4193 23 54.5 23ZM55.5 54C55.5 54.2652 55.3946 54.5196 55.2071 54.7071C55.0196 54.8946 54.7652 55 54.5 55H30.5C30.2348 55 29.9804 54.8946 29.7929 54.7071C29.6054 54.5196 29.5 54.2652 29.5 54V30C29.5 29.7348 29.6054 29.4804 29.7929 29.2929C29.9804 29.1054 30.2348 29 30.5 29H54.5C54.7652 29 55.0196 29.1054 55.2071 29.2929C55.3946 29.4804 55.5 29.7348 55.5 30V54ZM54.5 71H30.5C28.6435 71 26.863 71.7375 25.5503 73.0503C24.2375 74.363 23.5 76.1435 23.5 78V102C23.5 103.857 24.2375 105.637 25.5503 106.95C26.863 108.262 28.6435 109 30.5 109H54.5C55.4193 109 56.3295 108.819 57.1788 108.467C58.0281 108.115 58.7997 107.6 59.4497 106.95C60.0998 106.3 60.6154 105.528 60.9672 104.679C61.3189 103.83 61.5 102.919 61.5 102V78C61.5 77.0807 61.3189 76.1705 60.9672 75.3212C60.6154 74.4719 60.0998 73.7003 59.4497 73.0503C58.7997 72.4002 58.0281 71.8846 57.1788 71.5328C56.3295 71.1811 55.4193 71 54.5 71ZM55.5 102C55.5 102.265 55.3946 102.52 55.2071 102.707C55.0196 102.895 54.7652 103 54.5 103H30.5C30.2348 103 29.9804 102.895 29.7929 102.707C29.6054 102.52 29.5 102.265 29.5 102V78C29.5 77.7348 29.6054 77.4804 29.7929 77.2929C29.9804 77.1054 30.2348 77 30.5 77H54.5C54.7652 77 55.0196 77.1054 55.2071 77.2929C55.3946 77.4804 55.5 77.7348 55.5 78V102ZM102.5 23H78.5C76.6435 23 74.863 23.7375 73.5503 25.0503C72.2375 26.363 71.5 28.1435 71.5 30V54C71.5 54.9193 71.6811 55.8295 72.0328 56.6788C72.3846 57.5281 72.9002 58.2997 73.5503 58.9497C74.2003 59.5998 74.9719 60.1154 75.8212 60.4672C76.6705 60.8189 77.5807 61 78.5 61H102.5C103.419 61 104.33 60.8189 105.179 60.4672C106.028 60.1154 106.8 59.5998 107.45 58.9497C108.1 58.2997 108.615 57.5281 108.967 56.6788C109.319 55.8295 109.5 54.9193 109.5 54V30C109.5 28.1435 108.762 26.363 107.45 25.0503C106.137 23.7375 104.357 23 102.5 23ZM103.5 54C103.5 54.2652 103.395 54.5196 103.207 54.7071C103.02 54.8946 102.765 55 102.5 55H78.5C78.2348 55 77.9804 54.8946 77.7929 54.7071C77.6054 54.5196 77.5 54.2652 77.5 54V30C77.5 29.7348 77.6054 29.4804 77.7929 29.2929C77.9804 29.1054 78.2348 29 78.5 29H102.5C102.765 29 103.02 29.1054 103.207 29.2929C103.395 29.4804 103.5 29.7348 103.5 30V54ZM71.5 90V74C71.5 73.2043 71.8161 72.4413 72.3787 71.8787C72.9413 71.3161 73.7043 71 74.5 71C75.2957 71 76.0587 71.3161 76.6213 71.8787C77.1839 72.4413 77.5 73.2043 77.5 74V90C77.5 90.7956 77.1839 91.5587 76.6213 92.1213C76.0587 92.6839 75.2957 93 74.5 93C73.7043 93 72.9413 92.6839 72.3787 92.1213C71.8161 91.5587 71.5 90.7956 71.5 90ZM109.5 82C109.5 82.7957 109.184 83.5587 108.621 84.1213C108.059 84.6839 107.296 85 106.5 85H93.5V106C93.5 106.796 93.1839 107.559 92.6213 108.121C92.0587 108.684 91.2956 109 90.5 109H74.5C73.7043 109 72.9413 108.684 72.3787 108.121C71.8161 107.559 71.5 106.796 71.5 106C71.5 105.204 71.8161 104.441 72.3787 103.879C72.9413 103.316 73.7043 103 74.5 103H87.5V74C87.5 73.2043 87.8161 72.4413 88.3787 71.8787C88.9413 71.3161 89.7044 71 90.5 71C91.2956 71 92.0587 71.3161 92.6213 71.8787C93.1839 72.4413 93.5 73.2043 93.5 74V79H106.5C107.296 79 108.059 79.3161 108.621 79.8787C109.184 80.4413 109.5 81.2043 109.5 82ZM109.5 98V106C109.5 106.796 109.184 107.559 108.621 108.121C108.059 108.684 107.296 109 106.5 109C105.704 109 104.941 108.684 104.379 108.121C103.816 107.559 103.5 106.796 103.5 106V98C103.5 97.2044 103.816 96.4413 104.379 95.8787C104.941 95.3161 105.704 95 106.5 95C107.296 95 108.059 95.3161 108.621 95.8787C109.184 96.4413 109.5 97.2044 109.5 98Z" fill="#171717"/>
    <path d="M2 30V10C2 5.58172 5.58172 2 10 2H30" stroke="#6563D4" stroke-width="4"/>
    <path d="M130 102L130 122C130 126.418 126.418 130 122 130L102 130" stroke="#6563D4" stroke-width="4"/>
    <path d="M130 30V10C130 5.58172 126.418 2 122 2H102" stroke="#6563D4" stroke-width="4"/>
    <path d="M2 102L2 122C2 126.418 5.58172 130 10 130L30 130" stroke="#6563D4" stroke-width="4"/>
</svg>
