<svg width="120" height="120" viewBox="0 0 120 120" fill="none" xmlns="http://www.w3.org/2000/svg">
<rect width="120" height="120" rx="36" fill="#F0F0FF"/>
<path d="M46.6667 91L73.3333 91C75.1014 91 76.7971 90.3001 78.0474 89.0544C79.2976 87.8086 80 86.1189 80 84.3571L80 35.6429C80 33.8811 79.2976 32.1914 78.0474 30.9456C76.7971 29.6999 75.1014 29 73.3333 29L46.6667 29C44.8986 29 43.2029 29.6999 41.9526 30.9456C40.7024 32.1914 40 33.8811 40 35.6429L40 84.3571C40 86.1189 40.7024 87.8086 41.9526 89.0544C43.2029 90.3001 44.8986 91 46.6667 91ZM44.4444 35.6429C44.4444 35.0556 44.6786 34.4924 45.0953 34.0771C45.5121 33.6619 46.0773 33.4286 46.6667 33.4286L73.3333 33.4286C73.9227 33.4286 74.4879 33.6619 74.9047 34.0771C75.3214 34.4924 75.5556 35.0556 75.5556 35.6429L75.5556 84.3571C75.5556 84.9444 75.3214 85.5076 74.9047 85.9229C74.4879 86.3381 73.9227 86.5714 73.3333 86.5714L46.6667 86.5714C46.0773 86.5714 45.5121 86.3381 45.0953 85.9229C44.6786 85.5076 44.4444 84.9444 44.4444 84.3571L44.4444 35.6429ZM56.6667 78.8214C56.6667 78.1645 56.8622 77.5223 57.2284 76.9761C57.5947 76.4299 58.1153 76.0042 58.7244 75.7528C59.3335 75.5014 60.0037 75.4357 60.6503 75.5638C61.2969 75.692 61.8908 76.0083 62.357 76.4728C62.8232 76.9373 63.1407 77.5292 63.2693 78.1735C63.3979 78.8177 63.3319 79.4856 63.0796 80.0925C62.8273 80.6994 62.4001 81.2181 61.8519 81.5831C61.3037 81.9481 60.6593 82.1429 60 82.1429C59.1159 82.1429 58.2681 81.7929 57.643 81.17C57.0179 80.5471 56.6667 79.7023 56.6667 78.8214Z" fill="#6563D4"/>
<path d="M65 45L55 55M55 45L65 55" stroke="#6563D4" stroke-width="4" stroke-linecap="round" stroke-linejoin="round"/>
</svg>
