<svg width="40" height="40" viewBox="0 0 40 40" fill="none" xmlns="http://www.w3.org/2000/svg">
<rect width="40" height="40" rx="20" fill="#F0F0FF"/>
<path d="M14.536 26.144C13.768 26.144 13.08 25.984 12.472 25.664C11.8747 25.344 11.3733 24.9067 10.968 24.352C10.5627 23.7867 10.2533 23.1413 10.04 22.416C9.82667 21.68 9.72 20.896 9.72 20.064C9.72 19.2427 9.82667 18.464 10.04 17.728C10.2533 16.992 10.5627 16.3467 10.968 15.792C11.3733 15.2267 11.8747 14.784 12.472 14.464C13.08 14.144 13.768 13.984 14.536 13.984C15.304 13.984 15.9867 14.144 16.584 14.464C17.192 14.784 17.6987 15.2267 18.104 15.792C18.5093 16.3467 18.8187 16.992 19.032 17.728C19.2453 18.464 19.352 19.2427 19.352 20.064C19.352 20.896 19.2453 21.68 19.032 22.416C18.8187 23.1413 18.5093 23.7867 18.104 24.352C17.6987 24.9067 17.192 25.344 16.584 25.664C15.9867 25.984 15.304 26.144 14.536 26.144ZM14.536 24.208C15.2827 24.208 15.896 23.8613 16.376 23.168C16.8667 22.4747 17.112 21.44 17.112 20.064C17.112 18.6987 16.8667 17.6747 16.376 16.992C15.896 16.2987 15.2827 15.952 14.536 15.952C13.7893 15.952 13.1707 16.2987 12.68 16.992C12.2 17.6747 11.96 18.6987 11.96 20.064C11.96 21.4293 12.2 22.464 12.68 23.168C13.1707 23.8613 13.7893 24.208 14.536 24.208ZM20.6541 26V24.496L22.8781 22.528C23.6888 21.8347 24.3875 21.2373 24.9741 20.736C25.5608 20.224 26.0141 19.744 26.3341 19.296C26.6541 18.848 26.8141 18.3573 26.8141 17.824C26.8141 17.4187 26.7128 17.072 26.5101 16.784C26.3181 16.496 26.0675 16.2773 25.7581 16.128C25.4488 15.9787 25.1288 15.904 24.7981 15.904C24.3395 15.904 23.9661 15.9947 23.6781 16.176C23.4008 16.3573 23.1875 16.576 23.0381 16.832C22.8995 17.088 22.8035 17.3387 22.7501 17.584C22.6968 17.8187 22.6701 17.9947 22.6701 18.112H20.5901C20.5901 17.8773 20.6275 17.5893 20.7021 17.248C20.7875 16.896 20.9261 16.5333 21.1181 16.16C21.3101 15.7867 21.5661 15.4347 21.8861 15.104C22.2061 14.7733 22.6115 14.5067 23.1021 14.304C23.5928 14.1013 24.1741 14 24.8461 14C25.5928 14 26.2755 14.1493 26.8941 14.448C27.5235 14.7467 28.0248 15.1733 28.3981 15.728C28.7821 16.2827 28.9741 16.9493 28.9741 17.728C28.9741 18.4427 28.7928 19.0933 28.4301 19.68C28.0781 20.2667 27.5928 20.8427 26.9741 21.408C26.3555 21.9627 25.6515 22.56 24.8621 23.2L23.8701 24.096H29.1821V26H20.6541Z" fill="#6563D4"/>
</svg>
