<svg width="40" height="40" viewBox="0 0 40 40" fill="none" xmlns="http://www.w3.org/2000/svg">
<rect width="40" height="40" rx="20" fill="#F0F0FF"/>
<path d="M16.536 26.144C15.768 26.144 15.08 25.984 14.472 25.664C13.8747 25.344 13.3733 24.9067 12.968 24.352C12.5627 23.7867 12.2533 23.1413 12.04 22.416C11.8267 21.68 11.72 20.896 11.72 20.064C11.72 19.2427 11.8267 18.464 12.04 17.728C12.2533 16.992 12.5627 16.3467 12.968 15.792C13.3733 15.2267 13.8747 14.784 14.472 14.464C15.08 14.144 15.768 13.984 16.536 13.984C17.304 13.984 17.9867 14.144 18.584 14.464C19.192 14.784 19.6987 15.2267 20.104 15.792C20.5093 16.3467 20.8187 16.992 21.032 17.728C21.2453 18.464 21.352 19.2427 21.352 20.064C21.352 20.896 21.2453 21.68 21.032 22.416C20.8187 23.1413 20.5093 23.7867 20.104 24.352C19.6987 24.9067 19.192 25.344 18.584 25.664C17.9867 25.984 17.304 26.144 16.536 26.144ZM16.536 24.208C17.2827 24.208 17.896 23.8613 18.376 23.168C18.8667 22.4747 19.112 21.44 19.112 20.064C19.112 18.6987 18.8667 17.6747 18.376 16.992C17.896 16.2987 17.2827 15.952 16.536 15.952C15.7893 15.952 15.1707 16.2987 14.68 16.992C14.2 17.6747 13.96 18.6987 13.96 20.064C13.96 21.4293 14.2 22.464 14.68 23.168C15.1707 23.8613 15.7893 24.208 16.536 24.208ZM26.6701 14.16V26H24.5261V17.296H22.2701V16L22.6381 15.888C23.2675 15.7067 23.7795 15.4987 24.1741 15.264C24.5688 15.0293 24.9421 14.7093 25.2941 14.304L25.4381 14.16H26.6701Z" fill="#6563D4"/>
</svg>
