<svg width="120" height="120" viewBox="0 0 120 120" fill="none" xmlns="http://www.w3.org/2000/svg">
<rect width="120" height="120" rx="36" fill="#F0F0FF"/>
<path d="M80 42H73.07L69.6625 36.89C69.4799 36.6164 69.2327 36.392 68.9427 36.2368C68.6527 36.0815 68.3289 36.0002 68 36H52C51.6711 36.0002 51.3473 36.0815 51.0573 36.2368C50.7673 36.392 50.5201 36.6164 50.3375 36.89L46.9275 42H40C38.4087 42 36.8826 42.6321 35.7574 43.7574C34.6321 44.8826 34 46.4087 34 48V76C34 77.5913 34.6321 79.1174 35.7574 80.2426C36.8826 81.3679 38.4087 82 40 82H80C81.5913 82 83.1174 81.3679 84.2426 80.2426C85.3679 79.1174 86 77.5913 86 76V48C86 46.4087 85.3679 44.8826 84.2426 43.7574C83.1174 42.6321 81.5913 42 80 42ZM82 76C82 76.5304 81.7893 77.0391 81.4142 77.4142C81.0391 77.7893 80.5304 78 80 78H40C39.4696 78 38.9609 77.7893 38.5858 77.4142C38.2107 77.0391 38 76.5304 38 76V48C38 47.4696 38.2107 46.9609 38.5858 46.5858C38.9609 46.2107 39.4696 46 40 46H48C48.3294 46.0002 48.6537 45.9191 48.9441 45.7638C49.2346 45.6086 49.4822 45.384 49.665 45.11L53.07 40H66.9275L70.335 45.11C70.5178 45.384 70.7654 45.6086 71.0559 45.7638C71.3463 45.9191 71.6706 46.0002 72 46H80C80.5304 46 81.0391 46.2107 81.4142 46.5858C81.7893 46.9609 82 47.4696 82 48V76ZM72 52V58C72 58.5304 71.7893 59.0391 71.4142 59.4142C71.0391 59.7893 70.5304 60 70 60H64C63.4696 60 62.9609 59.7893 62.5858 59.4142C62.2107 59.0391 62 58.5304 62 58C62 57.4696 62.2107 56.9609 62.5858 56.5858C62.9609 56.2107 63.4696 56 64 56H65.2875C63.906 54.7897 62.1514 54.0895 60.3161 54.0163C58.4809 53.943 56.676 54.5011 55.2025 55.5975C54.7785 55.9164 54.2451 56.0538 53.7198 55.9795C53.1945 55.9052 52.7202 55.6253 52.4013 55.2013C52.0823 54.7772 51.9449 54.2439 52.0192 53.7186C52.0935 53.1932 52.3735 52.7189 52.7975 52.4C55.0207 50.7448 57.7465 49.9065 60.5156 50.0263C63.2848 50.146 65.928 51.2166 68 53.0575V52C68 51.4696 68.2107 50.9609 68.5858 50.5858C68.9609 50.2107 69.4696 50 70 50C70.5304 50 71.0391 50.2107 71.4142 50.5858C71.7893 50.9609 72 51.4696 72 52ZM67.5975 66.8C67.9163 67.2237 68.0538 67.7567 67.9797 68.2818C67.9056 68.8068 67.6261 69.281 67.2025 69.6C64.9793 71.2552 62.2535 72.0935 59.4844 71.9737C56.7153 71.854 54.072 70.7834 52 68.9425V70C52 70.5304 51.7893 71.0391 51.4142 71.4142C51.0391 71.7893 50.5304 72 50 72C49.4696 72 48.9609 71.7893 48.5858 71.4142C48.2107 71.0391 48 70.5304 48 70V64C48 63.4696 48.2107 62.9609 48.5858 62.5858C48.9609 62.2107 49.4696 62 50 62H56C56.5304 62 57.0391 62.2107 57.4142 62.5858C57.7893 62.9609 58 63.4696 58 64C58 64.5304 57.7893 65.0391 57.4142 65.4142C57.0391 65.7893 56.5304 66 56 66H54.7125C56.094 67.2103 57.8486 67.9105 59.6839 67.9837C61.5191 68.057 63.324 67.4989 64.7975 66.4025C65.2215 66.084 65.7547 65.9469 66.2798 66.0215C66.8049 66.096 67.2789 66.376 67.5975 66.8Z" fill="#6563D4"/>
</svg>
