<svg width="120" height="120" viewBox="0 0 120 120" fill="none" xmlns="http://www.w3.org/2000/svg">
<rect width="120" height="120" rx="32" fill="#F0F0FF"/>
<path d="M78 46.91V38C78 36.9391 77.5786 35.9217 76.8284 35.1716C76.0783 34.4214 75.0609 34 74 34H46C44.9391 34 43.9217 34.4214 43.1716 35.1716C42.4214 35.9217 42 36.9391 42 38V47C42.0014 47.6207 42.1465 48.2327 42.4241 48.7879C42.7017 49.3431 43.1042 49.8265 43.6 50.2L56.6675 60L43.6 69.8C43.1042 70.1735 42.7017 70.6569 42.4241 71.2121C42.1465 71.7673 42.0014 72.3793 42 73V82C42 83.0609 42.4214 84.0783 43.1716 84.8284C43.9217 85.5786 44.9391 86 46 86H74C75.0609 86 76.0783 85.5786 76.8284 84.8284C77.5786 84.0783 78 83.0609 78 82V73.09C77.9984 72.472 77.8543 71.8628 77.579 71.3095C77.3037 70.7563 76.9045 70.2739 76.4125 69.9L63.3175 60L76.4125 50.1C76.9049 49.7265 77.3044 49.2442 77.5798 48.6909C77.8551 48.1375 77.999 47.5281 78 46.91ZM72.5575 72H47.3325L60 62.5L72.5575 72ZM46 82V76H74V82H46ZM74 46.91L60 57.5L46 47V38H74V46.91Z" fill="#6563D4"/>
</svg>
